<?xml version="1.0" standalone="no"?>
<!DOCTYPE svg PUBLIC "-//W3C//DTD SVG 20010904//EN"
 "http://www.w3.org/TR/2001/REC-SVG-20010904/DTD/svg10.dtd">
<svg version="1.0" xmlns="http://www.w3.org/2000/svg"
 width="128.000000pt" height="128.000000pt" viewBox="0 0 128.000000 128.000000"
 preserveAspectRatio="xMidYMid meet">

<g transform="translate(0.000000,128.000000) scale(0.100000,-0.100000)"
fill="#000000" stroke="none">
<path d="M160 1200 l0 -80 -80 0 -80 0 0 -100 0 -100 80 0 80 0 0 -80 0 -80
105 0 105 0 0 80 0 80 75 0 75 0 0 100 0 100 -75 0 -75 0 0 80 0 80 -105 0
-105 0 0 -80z"/>
<path d="M910 1200 l0 -80 -75 0 -75 0 0 -100 0 -100 75 0 75 0 0 -80 0 -80
105 0 105 0 0 80 0 80 80 0 80 0 0 100 0 100 -80 0 -80 0 0 80 0 80 -105 0
-105 0 0 -80z"/>
<path d="M559 777 c-79 -53 -105 -156 -56 -227 90 -135 297 -75 297 85 0 127
-140 210 -241 142z m93 -74 c38 -34 12 -93 -41 -93 -34 0 -51 17 -51 51 0 52
54 77 92 42z"/>
<path d="M72 358 l3 -123 58 -3 c56 -3 59 -4 125 -70 75 -75 160 -122 263
-147 180 -42 366 13 501 147 66 66 69 67 125 70 l58 3 3 123 3 122 -91 0 -90
0 0 -35 0 -35 -390 0 -390 0 0 35 0 35 -90 0 -91 0 3 -122z m748 -132 c-62
-59 -298 -59 -360 0 -12 12 13 14 180 14 167 0 192 -2 180 -14z"/>
</g>
</svg>
